<svg width="100" height="100" viewBox="0 0 100 100" fill="none" xmlns="http://www.w3.org/2000/svg">
  <!-- Background circle -->
  <circle cx="50" cy="50" r="45" fill="#005156" opacity="0.1"/>
  
  <!-- Main cross shape with rounded corners -->
  <path d="M 40 30 
         C 40 25, 45 20, 50 20
         C 55 20, 60 25, 60 30
         L 60 40
         L 70 40
         C 75 40, 80 45, 80 50
         C 80 55, 75 60, 70 60
         L 60 60
         L 60 70
         C 60 75, 55 80, 50 80
         C 45 80, 40 75, 40 70
         L 40 60
         L 30 60
         C 25 60, 20 55, 20 50
         C 20 45, 25 40, 30 40
         L 40 40
         Z"
        fill="#005156"/>
  
  <!-- Center detail - small circle -->
  <circle cx="50" cy="50" r="8" fill="#FFFFFF"/>
</svg>